<?xml version="1.0" encoding="utf-8"?>
<!-- Generator: Adobe Illustrator 16.0.0, SVG Export Plug-In . SVG Version: 6.00 Build 0)  -->
<!DOCTYPE svg PUBLIC "-//W3C//DTD SVG 1.1//EN" "http://www.w3.org/Graphics/SVG/1.1/DTD/svg11.dtd">
<svg version="1.1" id="Layer_1" xmlns="http://www.w3.org/2000/svg" xmlns:xlink="http://www.w3.org/1999/xlink" x="0px" y="0px"
	 width="142.474px" height="36.849px" viewBox="0 0 142.474 36.849" enable-background="new 0 0 142.474 36.849"
	 xml:space="preserve">
<g>
	<path fill="#F05E0F" d="M7.329,9.414c1.026,0.607,2.809,1.209,5.346,1.803c2.889,0.646,5.068,1.674,6.539,3.076
		c1.472,1.404,2.208,3.295,2.208,5.669c0,1.836-0.46,3.451-1.377,4.84c-0.917,1.391-2.173,2.463-3.766,3.219
		s-3.36,1.135-5.306,1.135c-1.943,0-3.725-0.379-5.344-1.135c-1.62-0.756-2.931-1.822-3.929-3.199C0.7,23.445,0.134,21.853,0,20.044
		l0.161-0.203l4.738-0.445c0.162,1.701,0.811,3.023,1.944,3.968s2.538,1.418,4.212,1.418c1.593,0,2.889-0.393,3.887-1.176
		c0.998-0.781,1.498-1.902,1.498-3.359c0-1-0.217-1.83-0.647-2.492c-0.433-0.66-1.148-1.215-2.146-1.66
		c-0.999-0.445-2.376-0.855-4.132-1.234c-2.646-0.568-4.718-1.457-6.215-2.672c-1.498-1.215-2.248-2.877-2.248-4.982
		c0-1.43,0.405-2.691,1.216-3.787c0.81-1.092,1.909-1.936,3.299-2.531C6.958,0.297,8.517,0,10.245,0
		c2.916,0,5.229,0.709,6.945,2.125c1.714,1.416,2.705,3.354,2.976,5.811l-0.161,0.242L15.55,8.422
		c-0.189-1.402-0.749-2.482-1.68-3.238c-0.932-0.758-2.167-1.135-3.706-1.135c-1.295,0-2.349,0.271-3.157,0.811
		C6.196,5.398,5.79,6.102,5.79,6.965C5.79,7.99,6.304,8.807,7.329,9.414z"/>
	<path fill="#F05E0F" d="M32.226,8.504h4.535v3.645h-4.535v10.974c0,0.674,0.195,1.193,0.588,1.559
		c0.391,0.363,0.965,0.547,1.721,0.547c0.621,0,1.256-0.082,1.902-0.244l0.121,0.08v3.686c-1.106,0.27-2.24,0.406-3.4,0.406
		c-1.729,0-3.092-0.48-4.09-1.439c-1-0.957-1.498-2.354-1.498-4.189V12.148h-3.768V8.504h3.768V2.551h0.364l4.292,1.498V8.504z"/>
	<path fill="#F05E0F" d="M45.487,11.014C47.188,9.07,49.132,8.1,51.319,8.1c0.729,0,1.309,0.105,1.74,0.322l-0.607,3.727
		L52.29,12.27c-0.322-0.08-0.769-0.121-1.336-0.121c-1.134,0-2.174,0.324-3.117,0.971c-0.945,0.648-1.729,1.58-2.35,2.795V28.75
		h-4.616V8.504h4.616V11.014z"/>
	<path fill="#F05E0F" d="M75.748,8.504L64.366,36.849h-4.738l3.525-8.787L54.972,8.504h5.184l4.819,11.458l0.323,2.551h0.163
		l5.466-14.009H75.748z"/>
	<path fill="#F05E0F" d="M78.998,8.504h4.656v2.227c0.73-0.783,1.633-1.418,2.713-1.902c1.08-0.486,2.336-0.729,3.766-0.729
		c1.621,0,3.146,0.41,4.576,1.232c1.432,0.826,2.586,2.033,3.463,3.625c0.877,1.594,1.316,3.484,1.316,5.67
		c0,2.187-0.439,4.078-1.316,5.669c-0.877,1.594-2.053,2.801-3.523,3.623c-1.471,0.824-3.084,1.236-4.838,1.236
		c-1.215,0-2.363-0.203-3.443-0.607c-1.08-0.406-1.982-0.973-2.713-1.701v10.002h-4.656V8.504z M93.21,13.748
		c-1.08-1.121-2.469-1.682-4.17-1.682c-1.486,0-2.754,0.486-3.807,1.459c-1.053,0.971-1.58,2.172-1.58,3.604v2.955
		c0,1.459,0.527,2.674,1.58,3.646c1.053,0.971,2.334,1.457,3.848,1.457c1.672,0,3.049-0.561,4.129-1.68
		c1.08-1.121,1.621-2.748,1.621-4.88C94.832,16.494,94.291,14.867,93.21,13.748z"/>
	<path fill="#F05E0F" d="M107.167,19.882c0.105,1.646,0.68,2.949,1.719,3.906c1.039,0.959,2.369,1.439,3.99,1.439
		c1.377,0,2.51-0.318,3.4-0.951c0.893-0.635,1.525-1.506,1.904-2.613l4.01,0.242l0.162,0.203c-0.676,2.268-1.832,4.01-3.463,5.225
		c-1.635,1.215-3.666,1.822-6.096,1.822c-1.998,0-3.766-0.439-5.305-1.316s-2.727-2.113-3.564-3.705
		c-0.836-1.594-1.254-3.428-1.254-5.507c0-2.053,0.467-3.873,1.396-5.467c0.934-1.592,2.166-2.834,3.705-3.727
		c1.541-0.889,3.213-1.334,5.021-1.334c1.918,0,3.619,0.41,5.104,1.232c1.484,0.826,2.645,2.02,3.482,3.584
		c0.836,1.568,1.256,3.416,1.256,5.549v1.417H107.167z M118.302,16.521c-0.137-1.459-0.715-2.6-1.742-3.422
		c-1.025-0.822-2.281-1.236-3.766-1.236c-1.402,0-2.611,0.414-3.623,1.236c-1.014,0.822-1.656,1.963-1.924,3.422H118.302z"/>
	<path fill="#F05E0F" d="M136.279,12.412c-0.676-0.527-1.512-0.791-2.512-0.791c-0.783,0-1.457,0.162-2.025,0.486
		c-0.566,0.324-0.848,0.797-0.848,1.418c0,0.646,0.389,1.188,1.174,1.619c0.781,0.432,2.145,0.918,4.088,1.457
		c2.16,0.568,3.754,1.311,4.779,2.229s1.539,2.146,1.539,3.683c0,1.244-0.332,2.371-0.992,3.383
		c-0.662,1.012-1.586,1.809-2.773,2.389s-2.566,0.871-4.131,0.871c-2.402,0-4.348-0.561-5.832-1.682
		c-1.484-1.119-2.402-2.68-2.754-4.676l0.082-0.244l3.846-0.648c0.271,1.107,0.771,1.959,1.5,2.551
		c0.729,0.596,1.795,0.893,3.199,0.893c0.998,0,1.828-0.217,2.49-0.648c0.66-0.432,0.992-1.025,0.992-1.781
		s-0.379-1.357-1.135-1.803s-2.094-0.912-4.008-1.396c-2.08-0.514-3.633-1.248-4.658-2.207s-1.539-2.221-1.539-3.787
		c0-1.025,0.297-1.969,0.891-2.834c0.594-0.863,1.432-1.545,2.512-2.045c1.078-0.498,2.309-0.748,3.684-0.748
		c2.16,0,3.922,0.504,5.287,1.518c1.361,1.012,2.178,2.463,2.447,4.354l-0.119,0.201l-3.889,0.527
		C137.384,13.701,136.953,12.938,136.279,12.412z"/>
</g>
</svg>
