<?xml version="1.0" encoding="UTF-8" standalone="no"?>
<!-- Generator: Adobe Illustrator 16.0.0, SVG Export Plug-In . SVG Version: 6.00 Build 0)  -->

<svg
   xmlns:dc="http://purl.org/dc/elements/1.1/"
   xmlns:cc="http://creativecommons.org/ns#"
   xmlns:rdf="http://www.w3.org/1999/02/22-rdf-syntax-ns#"
   xmlns:svg="http://www.w3.org/2000/svg"
   xmlns="http://www.w3.org/2000/svg"
   xmlns:sodipodi="http://sodipodi.sourceforge.net/DTD/sodipodi-0.dtd"
   xmlns:inkscape="http://www.inkscape.org/namespaces/inkscape"
   version="1.1"
   id="Layer_1"
   x="0px"
   y="0px"
   width="142.474px"
   height="36.849px"
   viewBox="0 0 142.474 36.849"
   enable-background="new 0 0 142.474 36.849"
   xml:space="preserve"
   sodipodi:docname="strypes_testlogo_blue.svg"
   inkscape:version="0.92.1 r15371"><metadata
     id="metadata53"><rdf:RDF><cc:Work
         rdf:about=""><dc:format>image/svg+xml</dc:format><dc:type
           rdf:resource="http://purl.org/dc/dcmitype/StillImage" /></cc:Work></rdf:RDF></metadata><defs
     id="defs51" /><sodipodi:namedview
     pagecolor="#ffffff"
     bordercolor="#666666"
     borderopacity="1"
     objecttolerance="10"
     gridtolerance="10"
     guidetolerance="10"
     inkscape:pageopacity="0"
     inkscape:pageshadow="2"
     inkscape:window-width="1920"
     inkscape:window-height="1016"
     id="namedview49"
     showgrid="false"
     inkscape:zoom="2.1898733"
     inkscape:cx="73.976884"
     inkscape:cy="18.4245"
     inkscape:window-x="0"
     inkscape:window-y="27"
     inkscape:window-maximized="1"
     inkscape:current-layer="Layer_1" /><g
     id="g6"
     style="fill:#0b2256;fill-opacity:1"><g
       id="g4"
       style="fill:#0b2256;fill-opacity:1"><path
         d="m 7.329,9.414 c 1.026,0.607 2.809,1.209 5.346,1.803 2.889,0.646 5.068,1.674 6.539,3.076 1.472,1.404 2.208,3.295 2.208,5.669 0,1.836 -0.46,3.451 -1.377,4.84 -0.917,1.391 -2.173,2.463 -3.766,3.219 -1.593,0.756 -3.36,1.135 -5.306,1.135 -1.943,0 -3.725,-0.379 -5.344,-1.135 C 4.009,27.265 2.698,26.199 1.7,24.822 0.7,23.445 0.134,21.853 0,20.044 l 0.161,-0.203 4.738,-0.445 c 0.162,1.701 0.811,3.023 1.944,3.968 1.133,0.945 2.538,1.418 4.212,1.418 1.593,0 2.889,-0.393 3.887,-1.176 0.998,-0.781 1.498,-1.902 1.498,-3.359 0,-1 -0.217,-1.83 -0.647,-2.492 C 15.36,17.095 14.645,16.54 13.647,16.095 12.648,15.65 11.271,15.24 9.515,14.861 6.869,14.293 4.797,13.404 3.3,12.189 1.802,10.974 1.052,9.312 1.052,7.207 1.052,5.777 1.457,4.516 2.268,3.42 3.078,2.328 4.177,1.484 5.567,0.889 6.958,0.297 8.517,0 10.245,0 c 2.916,0 5.229,0.709 6.945,2.125 1.714,1.416 2.705,3.354 2.976,5.811 L 20.005,8.178 15.55,8.422 C 15.361,7.02 14.801,5.94 13.87,5.184 12.938,4.426 11.703,4.049 10.164,4.049 8.869,4.049 7.815,4.32 7.007,4.86 6.196,5.398 5.79,6.102 5.79,6.965 c 0,1.025 0.514,1.842 1.539,2.449 z"
         id="path2"
         inkscape:connector-curvature="0"
         style="fill:#0b2256;fill-opacity:1" /></g></g><g
     id="g12"
     style="fill:#0b2256;fill-opacity:1"><g
       id="g10"
       style="fill:#0b2256;fill-opacity:1"><path
         d="m 32.226,8.504 h 4.535 v 3.645 h -4.535 v 10.974 c 0,0.674 0.195,1.193 0.588,1.559 0.391,0.363 0.965,0.547 1.721,0.547 0.621,0 1.256,-0.082 1.902,-0.244 l 0.121,0.08 v 3.686 c -1.106,0.27 -2.24,0.406 -3.4,0.406 -1.729,0 -3.092,-0.48 -4.09,-1.439 -1,-0.957 -1.498,-2.354 -1.498,-4.189 V 12.148 H 23.802 V 8.504 H 27.57 V 2.551 h 0.364 l 4.292,1.498 z"
         id="path8"
         inkscape:connector-curvature="0"
         style="fill:#0b2256;fill-opacity:1" /></g></g><g
     id="g18"
     style="fill:#0b2256;fill-opacity:1"><g
       id="g16"
       style="fill:#0b2256;fill-opacity:1"><path
         d="M 45.487,11.014 C 47.188,9.07 49.132,8.1 51.319,8.1 c 0.729,0 1.309,0.105 1.74,0.322 l -0.607,3.727 -0.162,0.121 c -0.322,-0.08 -0.769,-0.121 -1.336,-0.121 -1.134,0 -2.174,0.324 -3.117,0.971 -0.945,0.648 -1.729,1.58 -2.35,2.795 V 28.75 H 40.871 V 8.504 h 4.616 z"
         id="path14"
         inkscape:connector-curvature="0"
         style="fill:#0b2256;fill-opacity:1" /></g></g><g
     id="g24"
     style="fill:#0b2256;fill-opacity:1"><g
       id="g22"
       style="fill:#0b2256;fill-opacity:1"><path
         d="M 75.748,8.504 64.366,36.849 H 59.628 L 63.153,28.062 54.972,8.504 h 5.184 l 4.819,11.458 0.323,2.551 h 0.163 L 70.927,8.504 Z"
         id="path20"
         inkscape:connector-curvature="0"
         style="fill:#0b2256;fill-opacity:1" /></g></g><g
     id="g30"
     style="fill:#0b2256;fill-opacity:1"><g
       id="g28"
       style="fill:#0b2256;fill-opacity:1"><path
         d="m 78.998,8.504 h 4.656 v 2.227 c 0.73,-0.783 1.633,-1.418 2.713,-1.902 1.08,-0.486 2.336,-0.729 3.766,-0.729 1.621,0 3.146,0.41 4.576,1.232 1.432,0.826 2.586,2.033 3.463,3.625 0.877,1.594 1.316,3.484 1.316,5.67 0,2.187 -0.439,4.078 -1.316,5.669 -0.877,1.594 -2.053,2.801 -3.523,3.623 -1.471,0.824 -3.084,1.236 -4.838,1.236 -1.215,0 -2.363,-0.203 -3.443,-0.607 -1.08,-0.406 -1.982,-0.973 -2.713,-1.701 V 36.849 H 78.999 V 8.504 Z m 14.212,5.244 c -1.08,-1.121 -2.469,-1.682 -4.17,-1.682 -1.486,0 -2.754,0.486 -3.807,1.459 -1.053,0.971 -1.58,2.172 -1.58,3.604 v 2.955 c 0,1.459 0.527,2.674 1.58,3.646 1.053,0.971 2.334,1.457 3.848,1.457 1.672,0 3.049,-0.561 4.129,-1.68 1.08,-1.121 1.621,-2.748 1.621,-4.88 10e-4,-2.133 -0.54,-3.76 -1.621,-4.879 z"
         id="path26"
         inkscape:connector-curvature="0"
         style="fill:#0b2256;fill-opacity:1" /></g></g><g
     id="g36"
     style="fill:#0b2256;fill-opacity:1"><g
       id="g34"
       style="fill:#0b2256;fill-opacity:1"><path
         d="m 107.167,19.882 c 0.105,1.646 0.68,2.949 1.719,3.906 1.039,0.959 2.369,1.439 3.99,1.439 1.377,0 2.51,-0.318 3.4,-0.951 0.893,-0.635 1.525,-1.506 1.904,-2.613 l 4.01,0.242 0.162,0.203 c -0.676,2.268 -1.832,4.01 -3.463,5.225 -1.635,1.215 -3.666,1.822 -6.096,1.822 -1.998,0 -3.766,-0.439 -5.305,-1.316 -1.539,-0.877 -2.727,-2.113 -3.564,-3.705 -0.836,-1.594 -1.254,-3.428 -1.254,-5.507 0,-2.053 0.467,-3.873 1.396,-5.467 0.934,-1.592 2.166,-2.834 3.705,-3.727 1.541,-0.889 3.213,-1.334 5.021,-1.334 1.918,0 3.619,0.41 5.104,1.232 1.484,0.826 2.645,2.02 3.482,3.584 0.836,1.568 1.256,3.416 1.256,5.549 v 1.417 h -15.467 z m 11.135,-3.361 c -0.137,-1.459 -0.715,-2.6 -1.742,-3.422 -1.025,-0.822 -2.281,-1.236 -3.766,-1.236 -1.402,0 -2.611,0.414 -3.623,1.236 -1.014,0.822 -1.656,1.963 -1.924,3.422 z"
         id="path32"
         inkscape:connector-curvature="0"
         style="fill:#0b2256;fill-opacity:1" /></g></g><g
     id="g42"
     style="fill:#0b2256;fill-opacity:1"><g
       id="g40"
       style="fill:#0b2256;fill-opacity:1"><path
         d="m 136.279,12.412 c -0.676,-0.527 -1.512,-0.791 -2.512,-0.791 -0.783,0 -1.457,0.162 -2.025,0.486 -0.566,0.324 -0.848,0.797 -0.848,1.418 0,0.646 0.389,1.188 1.174,1.619 0.781,0.432 2.145,0.918 4.088,1.457 2.16,0.568 3.754,1.311 4.779,2.229 1.025,0.918 1.539,2.146 1.539,3.683 0,1.244 -0.332,2.371 -0.992,3.383 -0.662,1.012 -1.586,1.809 -2.773,2.389 -1.187,0.58 -2.566,0.871 -4.131,0.871 -2.402,0 -4.348,-0.561 -5.832,-1.682 -1.484,-1.119 -2.402,-2.68 -2.754,-4.676 l 0.082,-0.244 3.846,-0.648 c 0.271,1.107 0.771,1.959 1.5,2.551 0.729,0.596 1.795,0.893 3.199,0.893 0.998,0 1.828,-0.217 2.49,-0.648 0.66,-0.432 0.992,-1.025 0.992,-1.781 0,-0.756 -0.379,-1.357 -1.135,-1.803 -0.756,-0.446 -2.094,-0.912 -4.008,-1.396 -2.08,-0.514 -3.633,-1.248 -4.658,-2.207 -1.025,-0.959 -1.539,-2.221 -1.539,-3.787 0,-1.025 0.297,-1.969 0.891,-2.834 0.594,-0.863 1.432,-1.545 2.512,-2.045 1.078,-0.498 2.309,-0.748 3.684,-0.748 2.16,0 3.922,0.504 5.287,1.518 1.361,1.012 2.178,2.463 2.447,4.354 l -0.119,0.201 -3.889,0.527 c -0.19,-1 -0.621,-1.763 -1.295,-2.289 z"
         id="path38"
         inkscape:connector-curvature="0"
         style="fill:#0b2256;fill-opacity:1" /></g></g></svg>